{
  "accessors": [
    {
      "bufferView": 2,
      "componentType": 5126,
      "count": 12,
      "max": [
        0.4036611020565033,
        2.0109174251556396,
        0.189105823636055
      ],
      "min": [
        -0.38766035437583923,
        0.26268649101257324,
        -0.11322135478258133
      ],
      "type": "VEC3"
    },
    {
      "bufferView": 2,
      "byteOffset": 144,
      "componentType": 5126,
      "count": 12,
      "max": [
        0.6038968563079834,
        -0.6335248351097107,
        -0.38986936211586
      ],
      "min": [
        -0.4265468120574951,
        -0.6952054500579834,
        -0.6933082938194275
      ],
      "type": "VEC3"
    },
    {
      "bufferView": 3,
      "componentType": 5126,
      "count": 12,
      "max": [
        0.911919355392456,
        0.30780795216560364,
        0.4335835874080658,
        1.0
      ],
      "min": [
        -0.24002981185913086,
        -0.027454493567347527,
        -0.9206739664077759,
        1.0
      ],
      "type": "VEC4"
    },
    {
      "bufferView": 1,
      "componentType": 5126,
      "count": 12,
      "max": [
        0.9641967415809631,
        0.9890491962432861
      ],
      "min": [
        0.0175430029630661,
        0.02417147159576416
      ],
      "type": "VEC2"
    },
    {
      "bufferView": 1,
      "byteOffset": 96,
      "componentType": 5126,
      "count": 12,
      "max": [
        0.9641967415809631,
        0.9890491962432861
      ],
      "min": [
        0.0175430029630661,
        0.02417147159576416
      ],
      "type": "VEC2"
    },
    {
      "bufferView": 1,
      "byteOffset": 192,
      "componentType": 5126,
      "count": 12,
      "max": [
        0.9641967415809631,
        0.9890491962432861
      ],
      "min": [
        0.0175430029630661,
        0.02417147159576416
      ],
      "type": "VEC2"
    },
    {
      "bufferView": 1,
      "byteOffset": 288,
      "componentType": 5126,
      "count": 12,
      "max": [
        0.9641967415809631,
        0.9890491962432861
      ],
      "min": [
        0.0175430029630661,
        0.02417147159576416
      ],
      "type": "VEC2"
    },
    {
      "bufferView": 0,
      "componentType": 5125,
      "count": 18,
      "type": "SCALAR"
    },
    {
      "bufferView": 2,
      "byteOffset": 288,
      "componentType": 5126,
      "count": 10225,
      "max": [
        0.4599258303642273,
        2.0800232887268066,
        0.19219870865345
      ],
      "min": [
        -0.45992568135261536,
        -2.4928978746174835e-05,
        -0.19431263208389282
      ],
      "type": "VEC3"
    },
    {
      "bufferView": 2,
      "byteOffset": 122988,
      "componentType": 5126,
      "count": 10225,
      "max": [
        1.0,
        1.0,
        1.0
      ],
      "min": [
        -1.0,
        -1.0,
        -1.0
      ],
      "type": "VEC3"
    },
    {
      "bufferView": 3,
      "byteOffset": 192,
      "componentType": 5126,
      "count": 10225,
      "max": [
        1.0,
        1.0,
        1.0,
        1.0
      ],
      "min": [
        -1.0,
        -1.0,
        -1.0,
        -1.0
      ],
      "type": "VEC4"
    },
    {
      "bufferView": 1,
      "byteOffset": 384,
      "componentType": 5126,
      "count": 10225,
      "max": [
        1.9509973526000977,
        0.9941710829734802
      ],
      "min": [
        0.0067408084869384766,
        0.006750212982296944
      ],
      "type": "VEC2"
    },
    {
      "bufferView": 1,
      "byteOffset": 82184,
      "componentType": 5126,
      "count": 10225,
      "max": [
        1.9509973526000977,
        0.9941710829734802
      ],
      "min": [
        0.0067408084869384766,
        0.006750212982296944
      ],
      "type": "VEC2"
    },
    {
      "bufferView": 1,
      "byteOffset": 163984,
      "componentType": 5126,
      "count": 10225,
      "max": [
        1.9509973526000977,
        0.9941710829734802
      ],
      "min": [
        0.0067408084869384766,
        0.006750212982296944
      ],
      "type": "VEC2"
    },
    {
      "bufferView": 1,
      "byteOffset": 245784,
      "componentType": 5126,
      "count": 10225,
      "max": [
        1.9509973526000977,
        0.9941710829734802
      ],
      "min": [
        0.0067408084869384766,
        0.006750212982296944
      ],
      "type": "VEC2"
    },
    {
      "bufferView": 0,
      "byteOffset": 72,
      "componentType": 5125,
      "count": 22830,
      "type": "SCALAR"
    }
  ],
  "asset": {
    "extras": {
      "author": "Brandon Westlake (https://sketchfab.com/dr.badass2142)",
      "license": "SKETCHFAB Standard (https://sketchfab.com/licenses)",
      "source": "https://sketchfab.com/3d-models/dusty-old-bookshelf-free-6c5ac2547db34c3c81b2e4808b000386",
      "title": "Dusty Old Bookshelf (FREE)"
    },
    "generator": "Sketchfab-15.50.0",
    "version": "2.0"
  },
  "bufferViews": [
    {
      "buffer": 0,
      "byteLength": 91392,
      "name": "floatBufferViews",
      "target": 34963
    },
    {
      "buffer": 0,
      "byteLength": 327584,
      "byteOffset": 91392,
      "byteStride": 8,
      "name": "floatBufferViews",
      "target": 34962
    },
    {
      "buffer": 0,
      "byteLength": 245688,
      "byteOffset": 418976,
      "byteStride": 12,
      "name": "floatBufferViews",
      "target": 34962
    },
    {
      "buffer": 0,
      "byteLength": 163792,
      "byteOffset": 664664,
      "byteStride": 16,
      "name": "floatBufferViews",
      "target": 34962
    }
  ],
  "buffers": [
    {
      "byteLength": 828456,
      "uri": "scene.bin"
    }
  ],
  "extensionsUsed": [
    "KHR_materials_specular"
  ],
  "images": [
    {
      "uri": "textures/Old_Dusty_Bookshelf_Spiderwebs_Mat_baseColor.png"
    },
    {
      "uri": "textures/Old_Dusty_Bookshelf_Spiderwebs_Mat_metallicRoughness.png"
    },
    {
      "uri": "textures/Old_Dusty_Bookshelf_Spiderwebs_Mat_normal.jpeg"
    },
    {
      "uri": "textures/Old_Dusty_Bookshelf_Spiderwebs_Mat_specularf0.png"
    },
    {
      "uri": "textures/Old_Dusty_Bookshelf_Mat_baseColor.jpeg"
    },
    {
      "uri": "textures/Old_Dusty_Bookshelf_Mat_metallicRoughness.png"
    },
    {
      "uri": "textures/Old_Dusty_Bookshelf_Mat_normal.jpeg"
    },
    {
      "uri": "textures/Old_Dusty_Bookshelf_Mat_specularf0.png"
    }
  ],
  "materials": [
    {
      "alphaMode": "BLEND",
      "doubleSided": true,
      "extensions": {
        "KHR_materials_specular": {
          "specularColorFactor": [
            1.0,
            1.0,
            1.0
          ],
          "specularFactor": 1.0,
          "specularTexture": {
            "index": 3
          }
        }
      },
      "name": "Old_Dusty_Bookshelf_Spiderwebs_Mat",
      "normalTexture": {
        "index": 2
      },
      "pbrMetallicRoughness": {
        "baseColorFactor": [
          1.0,
          1.0,
          1.0,
          0.3878610149486198
        ],
        "baseColorTexture": {
          "index": 0
        },
        "metallicRoughnessTexture": {
          "index": 1
        }
      }
    },
    {
      "doubleSided": true,
      "extensions": {
        "KHR_materials_specular": {
          "specularColorFactor": [
            1.0,
            1.0,
            1.0
          ],
          "specularFactor": 1.0,
          "specularTexture": {
            "index": 7
          }
        }
      },
      "name": "Old_Dusty_Bookshelf_Mat",
      "normalTexture": {
        "index": 6
      },
      "occlusionTexture": {
        "index": 5
      },
      "pbrMetallicRoughness": {
        "baseColorTexture": {
          "index": 4
        },
        "metallicFactor": 0.0,
        "metallicRoughnessTexture": {
          "index": 5
        }
      }
    }
  ],
  "meshes": [
    {
      "name": "Object_0",
      "primitives": [
        {
          "attributes": {
            "NORMAL": 1,
            "POSITION": 0,
            "TANGENT": 2,
            "TEXCOORD_0": 3,
            "TEXCOORD_1": 4,
            "TEXCOORD_2": 5,
            "TEXCOORD_3": 6
          },
          "indices": 7,
          "material": 0,
          "mode": 4
        }
      ]
    },
    {
      "name": "Object_1",
      "primitives": [
        {
          "attributes": {
            "NORMAL": 9,
            "POSITION": 8,
            "TANGENT": 10,
            "TEXCOORD_0": 11,
            "TEXCOORD_1": 12,
            "TEXCOORD_2": 13,
            "TEXCOORD_3": 14
          },
          "indices": 15,
          "material": 1,
          "mode": 4
        }
      ]
    }
  ],
  "nodes": [
    {
      "children": [
        1
      ],
      "matrix": [
        1.0,
        0.0,
        0.0,
        0.0,
        0.0,
        2.220446049250313e-16,
        -1.0,
        0.0,
        0.0,
        1.0,
        2.220446049250313e-16,
        0.0,
        0.0,
        0.0,
        0.0,
        1.0
      ],
      "name": "Sketchfab_model"
    },
    {
      "children": [
        2
      ],
      "name": "root"
    },
    {
      "children": [
        3,
        5
      ],
      "matrix": [
        1.0,
        0.0,
        0.0,
        0.0,
        0.0,
        2.220446049250313e-16,
        1.0,
        0.0,
        0.0,
        -1.0,
        2.220446049250313e-16,
        0.0,
        0.0,
        0.0,
        0.0,
        1.0
      ],
      "name": "GLTF_SceneRootNode"
    },
    {
      "children": [
        4
      ],
      "name": "Old_Dusty_Bookshelf_Spiderwebs_0"
    },
    {
      "mesh": 0,
      "name": "Object_4"
    },
    {
      "children": [
        6
      ],
      "name": "Old_Dusty_Bookshelf_1"
    },
    {
      "mesh": 1,
      "name": "Object_6"
    }
  ],
  "samplers": [
    {
      "magFilter": 9729,
      "minFilter": 9987,
      "wrapS": 10497,
      "wrapT": 10497
    }
  ],
  "scene": 0,
  "scenes": [
    {
      "name": "Sketchfab_Scene",
      "nodes": [
        0
      ]
    }
  ],
  "textures": [
    {
      "sampler": 0,
      "source": 0
    },
    {
      "sampler": 0,
      "source": 1
    },
    {
      "sampler": 0,
      "source": 2
    },
    {
      "sampler": 0,
      "source": 3
    },
    {
      "sampler": 0,
      "source": 4
    },
    {
      "sampler": 0,
      "source": 5
    },
    {
      "sampler": 0,
      "source": 6
    },
    {
      "sampler": 0,
      "source": 7
    }
  ]
}
